<svg width="24" height="24" viewBox="0 0 24 24" fill="none" xmlns="http://www.w3.org/2000/svg">
<path d="M11.5657 21.3478L11.495 20.8528L11.5657 21.3478ZM7.6896 21.2049L8.0172 20.8272L7.6896 21.2049ZM20.2664 19.3637L20.6441 19.6913L20.2664 19.3637ZM20.2664 4.63628L19.8886 4.96388L20.2664 4.63628ZM11.495 3.14722L15.7778 3.75905L15.9192 2.7691L11.6364 2.15727L11.495 3.14722ZM20.5 9.20377V14.7962H21.5V9.20377H20.5ZM15.7778 20.2409L11.495 20.8528L11.6364 21.8427L15.9192 21.2309L15.7778 20.2409ZM7.5 7.13193V6.61204H6.5V7.13193H7.5ZM7.5 17.388V17.066H6.5V17.388H7.5ZM11.495 20.8528C10.4178 21.0067 9.66249 21.1134 9.08872 21.1144C8.52909 21.1154 8.23244 21.0138 8.0172 20.8272L7.362 21.5826C7.83635 21.994 8.41558 22.1156 9.09051 22.1144C9.7513 22.1132 10.5892 21.9923 11.6364 21.8427L11.495 20.8528ZM6.5 17.388C6.5 18.4458 6.49882 19.2924 6.5911 19.9467C6.68535 20.615 6.88764 21.1712 7.362 21.5826L8.0172 20.8272C7.80196 20.6405 7.65945 20.3612 7.5813 19.807C7.50118 19.2389 7.5 18.476 7.5 17.388H6.5ZM20.5 14.7962C20.5 16.0498 20.4991 16.9431 20.4122 17.6305C20.3272 18.304 20.166 18.7163 19.8886 19.0361L20.6441 19.6913C21.1003 19.1653 21.306 18.5344 21.4044 17.7558C21.5009 16.9912 21.5 16.0237 21.5 14.7962H20.5ZM15.9192 21.2309C17.1344 21.0573 18.0923 20.9214 18.8356 20.7177C19.5924 20.5102 20.1879 20.2174 20.6441 19.6913L19.8886 19.0361C19.6112 19.356 19.2259 19.5738 18.5712 19.7532C17.903 19.9364 17.0188 20.0637 15.7778 20.2409L15.9192 21.2309ZM15.7778 3.75905C17.0188 3.93633 17.903 4.06358 18.5712 4.24676C19.2259 4.42621 19.6112 4.64403 19.8886 4.96388L20.6441 4.30868C20.1879 3.78264 19.5924 3.48979 18.8356 3.28234C18.0923 3.0786 17.1344 2.9427 15.9192 2.7691L15.7778 3.75905ZM21.5 9.20377C21.5 7.97627 21.5009 7.00876 21.4044 6.24418C21.306 5.46562 21.1003 4.83472 20.6441 4.30868L19.8886 4.96388C20.166 5.28373 20.3272 5.69604 20.4122 6.3695C20.4991 7.05692 20.5 7.95021 20.5 9.20377H21.5ZM11.6364 2.15727C10.5892 2.00767 9.7513 1.88678 9.09051 1.88559C8.41558 1.88438 7.83635 2.00598 7.362 2.41738L8.0172 3.17284C8.23244 2.98616 8.52909 2.88459 9.08872 2.88559C9.66249 2.88662 10.4178 2.99334 11.495 3.14722L11.6364 2.15727ZM7.5 6.61204C7.5 5.52396 7.50118 4.76112 7.5813 4.19297C7.65945 3.63882 7.80196 3.35951 8.0172 3.17284L7.362 2.41738C6.88764 2.82879 6.68535 3.385 6.5911 4.05332C6.49882 4.70764 6.5 5.55422 6.5 6.61204H7.5Z" fill="white"/>
<path d="M16 12L16.3904 11.6877L16.6403 12L16.3904 12.3123L16 12ZM4 12.5C3.72386 12.5 3.5 12.2761 3.5 12C3.5 11.7239 3.72386 11.5 4 11.5V12.5ZM12.3904 6.68765L16.3904 11.6877L15.6096 12.3123L11.6096 7.31235L12.3904 6.68765ZM16.3904 12.3123L12.3904 17.3123L11.6096 16.6877L15.6096 11.6877L16.3904 12.3123ZM16 12.5H4V11.5H16V12.5Z" fill="white"/>
</svg>
